<?xml version="1.0" standalone="no"?>
<!DOCTYPE svg PUBLIC "-//W3C//DTD SVG 20010904//EN"
 "http://www.w3.org/TR/2001/REC-SVG-20010904/DTD/svg10.dtd">
<svg version="1.0" xmlns="http://www.w3.org/2000/svg"
 width="500.000000pt" height="500.000000pt" viewBox="0 0 500.000000 500.000000"
 preserveAspectRatio="xMidYMid meet">
<metadata>
Created by potrace 1.11, written by Peter Selinger 2001-2013
</metadata>
<g transform="translate(0.000000,500.000000) scale(0.100000,-0.100000)"
fill="#000000" stroke="none">
<path d="M3490 4477 c-75 -28 -360 -182 -646 -349 -165 -96 -364 -212 -444
-258 -335 -192 -452 -299 -524 -481 -42 -106 -359 -1017 -498 -1431 -111 -333
-134 -391 -161 -418 -17 -16 -36 -29 -42 -27 -5 3 -39 -7 -75 -20 -36 -13
-139 -49 -229 -79 -205 -68 -246 -90 -343 -184 -70 -68 -78 -79 -78 -113 0
-117 109 -226 333 -332 260 -123 557 -197 967 -240 247 -25 831 -40 1090 -27
327 17 619 54 850 108 381 89 784 284 849 411 33 64 -4 167 -81 225 -86 66
-269 141 -483 198 -44 12 -121 38 -171 57 l-90 35 -78 156 c-43 87 -218 420
-389 741 -221 416 -311 593 -311 616 0 25 33 79 149 246 371 535 568 810 593
827 15 11 45 25 67 30 51 14 218 32 288 32 54 0 92 21 71 39 -18 16 -281 170
-352 206 -60 31 -85 38 -149 41 -51 3 -91 0 -113 -9z"/>
</g>
</svg>
